<?xml version="1.0" encoding="UTF-8" standalone="no"?>
<!DOCTYPE svg PUBLIC "-//W3C//DTD SVG 1.1//EN"
 "http://www.w3.org/Graphics/SVG/1.1/DTD/svg11.dtd">
<!-- Generated by graphviz version 2.42.4 (0)
 -->
<!-- Title: zentropy_landscape Pages: 1 -->
<svg width="659pt" height="409pt"
 viewBox="0.00 0.00 658.50 409.00" xmlns="http://www.w3.org/2000/svg" xmlns:xlink="http://www.w3.org/1999/xlink">
<g id="graph0" class="graph" transform="scale(1 1) rotate(0) translate(4 405)">
<title>zentropy_landscape</title>
<polygon fill="white" stroke="transparent" points="-4,4 -4,-405 654.5,-405 654.5,4 -4,4"/>
<!-- Shannon -->
<g id="node1" class="node">
<title>Shannon</title>
<path fill="#efefef" stroke="black" d="M252,-329C252,-329 190,-329 190,-329 184,-329 178,-323 178,-317 178,-317 178,-305 178,-305 178,-299 184,-293 190,-293 190,-293 252,-293 252,-293 258,-293 264,-299 264,-305 264,-305 264,-317 264,-317 264,-323 258,-329 252,-329"/>
<text text-anchor="middle" x="221" y="-314" font-family="Helvetica,sans-Serif" font-size="10.00">Shannon 1948</text>
<text text-anchor="middle" x="221" y="-303" font-family="Helvetica,sans-Serif" font-size="10.00">info theory</text>
</g>
<!-- Parrondo -->
<g id="node6" class="node">
<title>Parrondo</title>
<path fill="#efefef" stroke="black" d="M335.5,-254.5C335.5,-254.5 196.5,-254.5 196.5,-254.5 190.5,-254.5 184.5,-248.5 184.5,-242.5 184.5,-242.5 184.5,-230.5 184.5,-230.5 184.5,-224.5 190.5,-218.5 196.5,-218.5 196.5,-218.5 335.5,-218.5 335.5,-218.5 341.5,-218.5 347.5,-224.5 347.5,-230.5 347.5,-230.5 347.5,-242.5 347.5,-242.5 347.5,-248.5 341.5,-254.5 335.5,-254.5"/>
<text text-anchor="middle" x="266" y="-239.5" font-family="Helvetica,sans-Serif" font-size="10.00">Parrondo et al 2015</text>
<text text-anchor="middle" x="266" y="-228.5" font-family="Helvetica,sans-Serif" font-size="10.00">Thermo of Information review</text>
</g>
<!-- Shannon&#45;&gt;Parrondo -->
<g id="edge2" class="edge">
<title>Shannon&#45;&gt;Parrondo</title>
<path fill="none" stroke="#444444" d="M231.66,-292.82C237.16,-283.97 243.96,-273 250.07,-263.17"/>
<polygon fill="#444444" stroke="#444444" points="253.11,-264.9 255.41,-254.56 247.16,-261.21 253.11,-264.9"/>
</g>
<!-- Still12 -->
<g id="node7" class="node">
<title>Still12</title>
<path fill="#ffd966" stroke="#7f6000" stroke-width="3" d="M154,-257C154,-257 12,-257 12,-257 6,-257 0,-251 0,-245 0,-245 0,-228 0,-228 0,-222 6,-216 12,-216 12,-216 154,-216 154,-216 160,-216 166,-222 166,-228 166,-228 166,-245 166,-245 166,-251 160,-257 154,-257"/>
<text text-anchor="middle" x="83" y="-245" font-family="Helvetica,sans-Serif" font-size="10.00">★ Still et al 2012</text>
<text text-anchor="middle" x="83" y="-234" font-family="Helvetica,sans-Serif" font-size="10.00">Thermodynamics of Prediction</text>
<text text-anchor="middle" x="83" y="-223" font-family="Helvetica,sans-Serif" font-size="10.00">(the keystone)</text>
</g>
<!-- Shannon&#45;&gt;Still12 -->
<g id="edge1" class="edge">
<title>Shannon&#45;&gt;Still12</title>
<path fill="none" stroke="#444444" d="M188.3,-292.82C170.68,-283.56 148.66,-271.99 129.31,-261.83"/>
<polygon fill="#444444" stroke="#444444" points="130.83,-258.67 120.34,-257.12 127.57,-264.87 130.83,-258.67"/>
</g>
<!-- Landauer -->
<g id="node2" class="node">
<title>Landauer</title>
<path fill="#efefef" stroke="black" d="M143,-329C143,-329 27,-329 27,-329 21,-329 15,-323 15,-317 15,-317 15,-305 15,-305 15,-299 21,-293 27,-293 27,-293 143,-293 143,-293 149,-293 155,-299 155,-305 155,-305 155,-317 155,-317 155,-323 149,-329 143,-329"/>
<text text-anchor="middle" x="85" y="-314" font-family="Helvetica,sans-Serif" font-size="10.00">Landauer 1961</text>
<text text-anchor="middle" x="85" y="-303" font-family="Helvetica,sans-Serif" font-size="10.00">info erasure costs kT ln 2</text>
</g>
<!-- Landauer&#45;&gt;Parrondo -->
<g id="edge3" class="edge">
<title>Landauer&#45;&gt;Parrondo</title>
<path fill="none" stroke="#444444" d="M127.89,-292.82C153.7,-282.48 186.74,-269.25 214.02,-258.32"/>
<polygon fill="#444444" stroke="#444444" points="215.43,-261.53 223.41,-254.56 212.83,-255.03 215.43,-261.53"/>
</g>
<!-- Landauer&#45;&gt;Still12 -->
<g id="edge4" class="edge">
<title>Landauer&#45;&gt;Still12</title>
<path fill="none" stroke="#444444" d="M84.53,-292.82C84.32,-285.2 84.06,-276 83.82,-267.32"/>
<polygon fill="#444444" stroke="#444444" points="87.32,-267.02 83.54,-257.12 80.32,-267.21 87.32,-267.02"/>
</g>
<!-- Jarzynski -->
<g id="node3" class="node">
<title>Jarzynski</title>
<path fill="#efefef" stroke="black" d="M431,-401C431,-401 337,-401 337,-401 331,-401 325,-395 325,-389 325,-389 325,-377 325,-377 325,-371 331,-365 337,-365 337,-365 431,-365 431,-365 437,-365 443,-371 443,-377 443,-377 443,-389 443,-389 443,-395 437,-401 431,-401"/>
<text text-anchor="middle" x="384" y="-386" font-family="Helvetica,sans-Serif" font-size="10.00">Jarzynski 1997</text>
<text text-anchor="middle" x="384" y="-375" font-family="Helvetica,sans-Serif" font-size="10.00">non&#45;eq work relation</text>
</g>
<!-- Crooks -->
<g id="node4" class="node">
<title>Crooks</title>
<path fill="#efefef" stroke="black" d="M385.5,-329C385.5,-329 296.5,-329 296.5,-329 290.5,-329 284.5,-323 284.5,-317 284.5,-317 284.5,-305 284.5,-305 284.5,-299 290.5,-293 296.5,-293 296.5,-293 385.5,-293 385.5,-293 391.5,-293 397.5,-299 397.5,-305 397.5,-305 397.5,-317 397.5,-317 397.5,-323 391.5,-329 385.5,-329"/>
<text text-anchor="middle" x="341" y="-314" font-family="Helvetica,sans-Serif" font-size="10.00">Crooks 1999</text>
<text text-anchor="middle" x="341" y="-303" font-family="Helvetica,sans-Serif" font-size="10.00">fluctuation theorem</text>
</g>
<!-- Jarzynski&#45;&gt;Crooks -->
<g id="edge5" class="edge">
<title>Jarzynski&#45;&gt;Crooks</title>
<path fill="none" stroke="#444444" d="M373.37,-364.7C368.37,-356.56 362.31,-346.69 356.79,-337.7"/>
<polygon fill="#444444" stroke="#444444" points="359.72,-335.79 351.51,-329.1 353.76,-339.46 359.72,-335.79"/>
</g>
<!-- Seifert -->
<g id="node5" class="node">
<title>Seifert</title>
<path fill="#efefef" stroke="black" d="M494,-254.5C494,-254.5 378,-254.5 378,-254.5 372,-254.5 366,-248.5 366,-242.5 366,-242.5 366,-230.5 366,-230.5 366,-224.5 372,-218.5 378,-218.5 378,-218.5 494,-218.5 494,-218.5 500,-218.5 506,-224.5 506,-230.5 506,-230.5 506,-242.5 506,-242.5 506,-248.5 500,-254.5 494,-254.5"/>
<text text-anchor="middle" x="436" y="-239.5" font-family="Helvetica,sans-Serif" font-size="10.00">Seifert 2012</text>
<text text-anchor="middle" x="436" y="-228.5" font-family="Helvetica,sans-Serif" font-size="10.00">stochastic thermo review</text>
</g>
<!-- Jarzynski&#45;&gt;Seifert -->
<g id="edge6" class="edge">
<title>Jarzynski&#45;&gt;Seifert</title>
<path fill="none" stroke="#444444" d="M391.47,-364.95C395.89,-354.62 401.5,-341.14 406,-329 413.96,-307.54 421.98,-282.87 427.73,-264.55"/>
<polygon fill="#444444" stroke="#444444" points="431.12,-265.43 430.75,-254.84 424.44,-263.35 431.12,-265.43"/>
</g>
<!-- Crooks&#45;&gt;Seifert -->
<g id="edge7" class="edge">
<title>Crooks&#45;&gt;Seifert</title>
<path fill="none" stroke="#444444" d="M363.51,-292.82C376.05,-283.25 391.84,-271.2 405.48,-260.79"/>
<polygon fill="#444444" stroke="#444444" points="407.82,-263.41 413.65,-254.56 403.58,-257.84 407.82,-263.41"/>
</g>
<!-- Crooks&#45;&gt;Parrondo -->
<g id="edge9" class="edge">
<title>Crooks&#45;&gt;Parrondo</title>
<path fill="none" stroke="#444444" d="M323.23,-292.82C313.61,-283.52 301.56,-271.88 291.01,-261.68"/>
<polygon fill="#444444" stroke="#444444" points="293.27,-258.99 283.65,-254.56 288.4,-264.02 293.27,-258.99"/>
</g>
<!-- Crooks&#45;&gt;Still12 -->
<g id="edge8" class="edge">
<title>Crooks&#45;&gt;Still12</title>
<path fill="none" stroke="#444444" d="M284.38,-294.09C248.69,-284.06 202.07,-270.96 162.68,-259.89"/>
<polygon fill="#444444" stroke="#444444" points="163.4,-256.46 152.83,-257.12 161.51,-263.2 163.4,-256.46"/>
</g>
<!-- England13 -->
<g id="node8" class="node">
<title>England13</title>
<path fill="#ffd966" stroke="#7f6000" stroke-width="3" d="M343.5,-180C343.5,-180 216.5,-180 216.5,-180 210.5,-180 204.5,-174 204.5,-168 204.5,-168 204.5,-156 204.5,-156 204.5,-150 210.5,-144 216.5,-144 216.5,-144 343.5,-144 343.5,-144 349.5,-144 355.5,-150 355.5,-156 355.5,-156 355.5,-168 355.5,-168 355.5,-174 349.5,-180 343.5,-180"/>
<text text-anchor="middle" x="280" y="-165" font-family="Helvetica,sans-Serif" font-size="10.00">★ England 2013</text>
<text text-anchor="middle" x="280" y="-154" font-family="Helvetica,sans-Serif" font-size="10.00">self&#45;replication stat physics</text>
</g>
<!-- Seifert&#45;&gt;England13 -->
<g id="edge10" class="edge">
<title>Seifert&#45;&gt;England13</title>
<path fill="none" stroke="#444444" d="M399.03,-218.32C377.17,-208.16 349.31,-195.21 326.04,-184.39"/>
<polygon fill="#444444" stroke="#444444" points="327.25,-181.1 316.7,-180.06 324.3,-187.45 327.25,-181.1"/>
</g>
<!-- ParrDaC -->
<g id="node12" class="node">
<title>ParrDaC</title>
<path fill="white" stroke="black" d="M536.5,-180C536.5,-180 385.5,-180 385.5,-180 379.5,-180 373.5,-174 373.5,-168 373.5,-168 373.5,-156 373.5,-156 373.5,-150 379.5,-144 385.5,-144 385.5,-144 536.5,-144 536.5,-144 542.5,-144 548.5,-150 548.5,-156 548.5,-156 548.5,-168 548.5,-168 548.5,-174 542.5,-180 536.5,-180"/>
<text text-anchor="middle" x="461" y="-165" font-family="Helvetica,sans-Serif" font-size="10.00">Parr, Da Costa, Friston 2020</text>
<text text-anchor="middle" x="461" y="-154" font-family="Helvetica,sans-Serif" font-size="10.00">Markov blankets &amp; stoch thermo</text>
</g>
<!-- Seifert&#45;&gt;ParrDaC -->
<g id="edge11" class="edge">
<title>Seifert&#45;&gt;ParrDaC</title>
<path fill="none" stroke="#444444" d="M441.92,-218.32C444.88,-209.74 448.53,-199.17 451.83,-189.58"/>
<polygon fill="#444444" stroke="#444444" points="455.17,-190.65 455.12,-180.06 448.55,-188.37 455.17,-190.65"/>
</g>
<!-- Parrondo&#45;&gt;ParrDaC -->
<g id="edge12" class="edge">
<title>Parrondo&#45;&gt;ParrDaC</title>
<path fill="none" stroke="#444444" d="M312.21,-218.32C340.14,-207.94 375.92,-194.63 405.39,-183.68"/>
<polygon fill="#444444" stroke="#444444" points="406.97,-186.82 415.12,-180.06 404.53,-180.26 406.97,-186.82"/>
</g>
<!-- Still20 -->
<g id="node13" class="node">
<title>Still20</title>
<path fill="white" stroke="black" d="M135.5,-108C135.5,-108 16.5,-108 16.5,-108 10.5,-108 4.5,-102 4.5,-96 4.5,-96 4.5,-84 4.5,-84 4.5,-78 10.5,-72 16.5,-72 16.5,-72 135.5,-72 135.5,-72 141.5,-72 147.5,-78 147.5,-84 147.5,-84 147.5,-96 147.5,-96 147.5,-102 141.5,-108 135.5,-108"/>
<text text-anchor="middle" x="76" y="-93" font-family="Helvetica,sans-Serif" font-size="10.00">Still 2020</text>
<text text-anchor="middle" x="76" y="-82" font-family="Helvetica,sans-Serif" font-size="10.00">Cost &amp; benefit of memory</text>
</g>
<!-- Still12&#45;&gt;Still20 -->
<g id="edge13" class="edge">
<title>Still12&#45;&gt;Still20</title>
<path fill="none" stroke="#444444" d="M82.04,-215.71C80.82,-190.49 78.7,-146.76 77.33,-118.36"/>
<polygon fill="#444444" stroke="#444444" points="80.82,-118.11 76.84,-108.3 73.83,-118.45 80.82,-118.11"/>
</g>
<!-- Zentropy -->
<g id="node15" class="node">
<title>Zentropy</title>
<path fill="#9fc5e8" stroke="#0b5394" stroke-width="4" d="M353,-36C353,-36 175,-36 175,-36 169,-36 163,-30 163,-24 163,-24 163,-12 163,-12 163,-6 169,0 175,0 175,0 353,0 353,0 359,0 365,-6 365,-12 365,-12 365,-24 365,-24 365,-30 359,-36 353,-36"/>
<text text-anchor="middle" x="264" y="-21.2" font-family="Helvetica,sans-Serif" font-size="11.00">ZENTROPY CONVERGENCE PAPER</text>
<text text-anchor="middle" x="264" y="-9.2" font-family="Helvetica,sans-Serif" font-size="11.00">(your proposed contribution)</text>
</g>
<!-- Still12&#45;&gt;Zentropy -->
<g id="edge14" class="edge">
<title>Still12&#45;&gt;Zentropy</title>
<path fill="none" stroke="#444444" d="M99.38,-215.91C132.33,-176.5 206.56,-87.7 243.01,-44.11"/>
<polygon fill="#444444" stroke="#444444" points="245.83,-46.19 249.56,-36.27 240.46,-41.7 245.83,-46.19"/>
</g>
<!-- England13&#45;&gt;Zentropy -->
<g id="edge15" class="edge">
<title>England13&#45;&gt;Zentropy</title>
<path fill="none" stroke="#444444" d="M258.73,-143.7C248.89,-134.31 238.24,-121.8 233,-108 224.99,-86.9 234.62,-62.69 245.2,-44.86"/>
<polygon fill="#444444" stroke="#444444" points="248.31,-46.48 250.73,-36.16 242.41,-42.72 248.31,-46.48"/>
</g>
<!-- Friston13 -->
<g id="node9" class="node">
<title>Friston13</title>
<path fill="#ffd966" stroke="#7f6000" stroke-width="3" d="M617.5,-254.5C617.5,-254.5 536.5,-254.5 536.5,-254.5 530.5,-254.5 524.5,-248.5 524.5,-242.5 524.5,-242.5 524.5,-230.5 524.5,-230.5 524.5,-224.5 530.5,-218.5 536.5,-218.5 536.5,-218.5 617.5,-218.5 617.5,-218.5 623.5,-218.5 629.5,-224.5 629.5,-230.5 629.5,-230.5 629.5,-242.5 629.5,-242.5 629.5,-248.5 623.5,-254.5 617.5,-254.5"/>
<text text-anchor="middle" x="577" y="-239.5" font-family="Helvetica,sans-Serif" font-size="10.00">★ Friston 2013</text>
<text text-anchor="middle" x="577" y="-228.5" font-family="Helvetica,sans-Serif" font-size="10.00">Life as we know it</text>
</g>
<!-- Friston13&#45;&gt;ParrDaC -->
<g id="edge17" class="edge">
<title>Friston13&#45;&gt;ParrDaC</title>
<path fill="none" stroke="#444444" d="M549.51,-218.32C533.76,-208.48 513.82,-196.01 496.86,-185.41"/>
<polygon fill="#444444" stroke="#444444" points="498.63,-182.39 488.29,-180.06 494.92,-188.33 498.63,-182.39"/>
</g>
<!-- Friston13&#45;&gt;Zentropy -->
<g id="edge18" class="edge">
<title>Friston13&#45;&gt;Zentropy</title>
<path fill="none" stroke="#444444" d="M577.84,-218.46C578.47,-184.73 574.6,-109.49 531,-72 507.4,-51.71 437.42,-38.27 375.02,-30"/>
<polygon fill="#444444" stroke="#444444" points="375.44,-26.53 365.08,-28.72 374.55,-33.47 375.44,-26.53"/>
</g>
<!-- Friston10 -->
<g id="node10" class="node">
<title>Friston10</title>
<path fill="white" stroke="black" d="M638.5,-329C638.5,-329 515.5,-329 515.5,-329 509.5,-329 503.5,-323 503.5,-317 503.5,-317 503.5,-305 503.5,-305 503.5,-299 509.5,-293 515.5,-293 515.5,-293 638.5,-293 638.5,-293 644.5,-293 650.5,-299 650.5,-305 650.5,-305 650.5,-317 650.5,-317 650.5,-323 644.5,-329 638.5,-329"/>
<text text-anchor="middle" x="577" y="-314" font-family="Helvetica,sans-Serif" font-size="10.00">Friston 2010</text>
<text text-anchor="middle" x="577" y="-303" font-family="Helvetica,sans-Serif" font-size="10.00">FEP as unified brain theory</text>
</g>
<!-- Friston10&#45;&gt;Friston13 -->
<g id="edge16" class="edge">
<title>Friston10&#45;&gt;Friston13</title>
<path fill="none" stroke="#444444" d="M577,-292.82C577,-284.42 577,-274.12 577,-264.69"/>
<polygon fill="#444444" stroke="#444444" points="580.5,-264.56 577,-254.56 573.5,-264.56 580.5,-264.56"/>
</g>
<!-- Schmidhuber -->
<g id="node11" class="node">
<title>Schmidhuber</title>
<path fill="white" stroke="black" d="M374,-108C374,-108 254,-108 254,-108 248,-108 242,-102 242,-96 242,-96 242,-84 242,-84 242,-78 248,-72 254,-72 254,-72 374,-72 374,-72 380,-72 386,-78 386,-84 386,-84 386,-96 386,-96 386,-102 380,-108 374,-108"/>
<text text-anchor="middle" x="314" y="-93" font-family="Helvetica,sans-Serif" font-size="10.00">Schmidhuber 2010</text>
<text text-anchor="middle" x="314" y="-82" font-family="Helvetica,sans-Serif" font-size="10.00">compression&#45;as&#45;creativity</text>
</g>
<!-- Schmidhuber&#45;&gt;Zentropy -->
<g id="edge20" class="edge">
<title>Schmidhuber&#45;&gt;Zentropy</title>
<path fill="none" stroke="#444444" d="M301.64,-71.7C295.77,-63.47 288.63,-53.48 282.16,-44.42"/>
<polygon fill="#444444" stroke="#444444" points="284.88,-42.21 276.22,-36.1 279.18,-46.28 284.88,-42.21"/>
</g>
<!-- Ramstead -->
<g id="node14" class="node">
<title>Ramstead</title>
<path fill="white" stroke="black" d="M510,-108C510,-108 416,-108 416,-108 410,-108 404,-102 404,-96 404,-96 404,-84 404,-84 404,-78 410,-72 416,-72 416,-72 510,-72 510,-72 516,-72 522,-78 522,-84 522,-84 522,-96 522,-96 522,-102 516,-108 510,-108"/>
<text text-anchor="middle" x="463" y="-93" font-family="Helvetica,sans-Serif" font-size="10.00">Ramstead et al 2021</text>
<text text-anchor="middle" x="463" y="-82" font-family="Helvetica,sans-Serif" font-size="10.00">Bayesian Mechanics</text>
</g>
<!-- ParrDaC&#45;&gt;Ramstead -->
<g id="edge19" class="edge">
<title>ParrDaC&#45;&gt;Ramstead</title>
<path fill="none" stroke="#444444" d="M461.49,-143.7C461.71,-135.98 461.98,-126.71 462.23,-118.11"/>
<polygon fill="#444444" stroke="#444444" points="465.72,-118.2 462.51,-108.1 458.73,-118 465.72,-118.2"/>
</g>
<!-- Still20&#45;&gt;Zentropy -->
<g id="edge22" class="edge">
<title>Still20&#45;&gt;Zentropy</title>
<path fill="none" stroke="#444444" stroke-dasharray="5,2" d="M121.99,-71.88C148.15,-62.14 181.09,-49.87 208.65,-39.61"/>
<polygon fill="#444444" stroke="#444444" points="210.01,-42.84 218.16,-36.07 207.57,-36.28 210.01,-42.84"/>
</g>
<!-- Ramstead&#45;&gt;Zentropy -->
<g id="edge21" class="edge">
<title>Ramstead&#45;&gt;Zentropy</title>
<path fill="none" stroke="#444444" stroke-dasharray="5,2" d="M414.57,-71.97C386.77,-62.19 351.66,-49.84 322.35,-39.52"/>
<polygon fill="#444444" stroke="#444444" points="323.24,-36.13 312.64,-36.11 320.92,-42.73 323.24,-36.13"/>
</g>
</g>
</svg>
